<svg width="250" height="233" viewBox="0 0 250 233" fill="none" xmlns="http://www.w3.org/2000/svg">
<path opacity="0.35" fill-rule="evenodd" clip-rule="evenodd" d="M194.621 0.463825L63.3629 1.95449L0.621175 110.626L60.7426 232.22L195.654 232.82L262.56 116.936L194.621 0.463825ZM224.083 175.365L256.637 118.979L204.603 118.747L171.646 175.832L224.083 175.365ZM221.699 179.493L193.288 228.703L141.254 228.471L169.262 179.96L221.699 179.493ZM164.495 180.003L136.524 228.45L65.5687 228.134L92.9896 180.639L164.495 180.003ZM89.4436 178.567L62.161 225.822L30.4373 161.662L56.0656 117.272L89.4436 178.567ZM58.4723 113.104L91.8503 174.399L125.372 116.338L91.6204 56.315L91.2558 56.3211L58.4723 113.104ZM53.7637 113.045L28.2495 157.237L5.2771 110.776L29.5934 68.6592L53.7637 113.045ZM32.0001 64.4907L56.1704 108.877L88.8616 52.2537L89.3322 52.2458L64.5327 8.14258L32.0001 64.4907ZM95.3732 176.511L166.879 175.874L199.873 118.726L128.918 118.41L95.3732 176.511ZM199.245 114.616L128.939 114.303L96.2882 56.2365L164.523 55.0886L199.245 114.616ZM162.15 51.0208L94 52.1672L68.0448 6.00873L135.448 5.24326L162.15 51.0208ZM140.171 5.18961L166.858 50.9416L218.8 50.0678L192.278 4.59785L140.171 5.18961ZM221.173 54.1356L169.231 55.0094L204.012 114.637L256.601 114.872L221.173 54.1356Z" fill="url(#paint0_linear_131_1287)"/>
<defs>
<linearGradient id="paint0_linear_131_1287" x1="59.8481" y1="1.5" x2="193.33" y2="239.714" gradientUnits="userSpaceOnUse">
<stop stop-color="white"/>
<stop offset="1" stop-color="#D50400"/>
</linearGradient>
</defs>
</svg>
