<svg width="219" height="70" viewBox="0 0 219 70" fill="none" xmlns="http://www.w3.org/2000/svg">
<g clip-path="url(#clip0_318_993)">
<path d="M44.2557 62.2478H4.60352L5.00622 61.6075H44.6584L44.2557 62.2478Z" fill="#A7A9AC"/>
<path d="M45.0125 61.0299H5.36035L5.76305 60.3828H45.4152L45.0125 61.0299Z" fill="#A7A9AC"/>
<path d="M45.7694 59.8052H6.11719L6.51295 59.158H46.1651L45.7694 59.8052Z" fill="#A7A9AC"/>
<path d="M46.5262 58.5804H6.87402L7.26978 57.9332H46.922L46.5262 58.5804Z" fill="#A7A9AC"/>
<path d="M55.8088 0V6.40919H32.7785C31.862 6.40919 31.1191 7.15379 31.1191 8.07237V44.0988H24.6967V8.07237C24.6967 7.15379 23.9538 6.40919 23.0373 6.40919H0V0H23.9399C24.5301 0 25.0855 0.243563 25.4951 0.668059L27.9114 3.22199L30.3276 0.668059C30.7233 0.243563 31.2857 0 31.8759 0H55.8088Z" fill="black"/>
<path d="M48.1224 62.0877C48.1293 62.9088 48.5251 63.7091 49.1222 64.2658L48.1918 65.4697H17.3644C17.3644 64.7529 17.3644 64.0362 17.3574 63.3263H47.1434L48.1224 62.0598V62.0877Z" fill="#D50400"/>
<path d="M55.8087 54.9547V55.6089L55.7948 55.6854L55.774 55.7968L55.7462 55.9359L54.6562 57.0911C54.427 56.7362 54.1215 56.4161 53.7049 56.2073C52.4135 55.5184 52.7815 55.7898 51.9553 57.0772L49.8099 57.0703L7.01939 56.8963C6.21399 56.8893 5.47107 57.3277 5.07532 58.0306L3.22844 61.3639C2.74243 62.2408 3.37425 63.3194 4.36712 63.3194H9.30368C9.31062 64.0362 9.31062 64.7529 9.31062 65.4627H0.00683594V54.739L55.8087 54.9547Z" fill="#D50400"/>
<path d="M15.9549 65.4697C15.9479 66.945 15.9549 68.4203 15.9549 69.9165C15.0939 69.2136 14.2955 68.5943 13.5387 67.9262C13.2818 67.7035 13.1707 67.7383 12.9555 67.954C12.3167 68.5803 11.6571 69.1927 10.9142 69.8886C10.8795 69.9165 10.8447 69.9373 10.8031 69.9721C10.7753 69.7216 10.7475 69.5894 10.7475 69.4572V65.4627C10.7475 64.746 10.7475 64.0292 10.7406 63.3194C10.7406 62.1364 10.7406 60.9603 10.7337 59.7773C10.7267 59.2554 10.8586 59.0675 11.4141 59.0883C12.7333 59.1231 14.0525 59.0953 15.3717 59.0953H15.9549V63.3124C15.9479 64.0361 15.9479 64.7529 15.9549 65.4697Z" fill="black"/>
<path d="M10.908 69.8956C10.8732 69.9304 10.8316 69.9652 10.7969 70V69.9791C10.8385 69.9443 10.8732 69.9235 10.908 69.8956Z" fill="#D50400"/>
<path d="M49.3864 11.9415V49.2484H6.42239V11.9415H0V55.6854H55.7463L55.7741 55.7968L55.8088 55.9638V11.9415H49.3864Z" fill="#D50400"/>
<path d="M55.809 55.6854V58.0097C55.323 57.8497 54.8092 57.7662 54.2746 57.7662C51.5181 57.7662 49.2963 60.007 49.2963 62.7557C49.2963 63.7578 49.588 64.6834 50.0948 65.4628H47.5814C47.3106 64.7877 47.1301 64.0779 47.0745 63.3194C47.0607 63.1315 47.0537 62.9506 47.0537 62.7557C47.0537 60.4454 48.1299 58.3925 49.8101 57.0703C50.6572 56.3953 51.657 55.9151 52.754 55.6854C53.24 55.5811 53.7538 55.5184 54.2746 55.5184C54.7953 55.5184 55.3021 55.5741 55.7951 55.6854C55.802 55.6854 55.802 55.6854 55.809 55.6854Z" fill="#D50400"/>
<path d="M71.8539 17.5713H65.501V12.3591H84.0738V17.5713H77.7625V41.8024H71.847V17.5713H71.8539Z" fill="#D50400"/>
<path d="M106.465 41.8023H101.265V38.6569C99.8762 41.2039 96.9809 42.4774 93.919 42.4774C86.9342 42.4774 82.8447 37.0285 82.8447 30.8629C82.8447 23.9805 87.8091 19.2832 93.919 19.2832C97.8905 19.2832 100.307 21.3918 101.265 23.1454V19.9652H106.465V41.8023ZM88.0451 30.9812C88.0451 33.6882 89.9892 37.627 94.6758 37.627C97.5711 37.627 99.4805 36.1169 100.473 34.1266C100.987 33.1733 101.23 32.1364 101.306 31.0647C101.348 30.0278 101.147 28.9561 100.709 28.0028C99.7929 25.936 97.7724 24.1405 94.6342 24.1405C90.4266 24.1405 88.0451 27.5643 88.0451 30.9464V30.9812Z" fill="#D50400"/>
<path d="M111.624 12.3591H116.824V17.0146H111.624V12.3591ZM111.624 19.9582H116.824V41.8024H111.624V19.9582Z" fill="#D50400"/>
<path d="M121.948 12.3591H127.149V41.7954H121.948V12.3591Z" fill="#D50400"/>
<path d="M131.113 30.8211C131.113 25.254 135.203 19.325 142.785 19.325C150.367 19.325 154.456 25.254 154.456 30.8629C154.456 36.5135 150.367 42.4426 142.785 42.4426C135.203 42.4426 131.113 36.5135 131.113 30.8629V30.8211ZM136.314 30.8977C136.314 34.7181 139.209 37.5435 142.785 37.5435C146.353 37.5435 149.214 34.7181 149.214 30.8629C149.214 27.0007 146.353 24.1823 142.785 24.1823C139.216 24.1823 136.314 27.0076 136.314 30.8629V30.8977Z" fill="#D50400"/>
<path d="M158.428 19.9582H163.35V22.8253C164.302 20.8768 166.086 19.325 169.384 19.2832V24.5372H169.148C165.496 24.5372 163.628 26.2491 163.628 30.0278V41.8023H158.428V19.9582Z" fill="#D50400"/>
<path d="M175.175 32.6096C175.411 36.1099 178.507 38.0584 181.486 38.0167C184.027 38.0167 185.735 36.8615 186.728 35.073H192.088C191.054 37.5017 189.505 39.3319 187.679 40.5637C185.853 41.8371 183.708 42.4704 181.444 42.4704C174.737 42.4704 169.933 37.0215 169.933 30.9325C169.933 24.7251 174.772 19.2762 181.361 19.2762C184.617 19.2762 187.471 20.508 189.498 22.6165C192.158 25.3584 193.15 28.7822 192.713 32.6026H175.175V32.6096ZM187.603 28.6291C187.402 26.5623 185.221 23.6534 181.41 23.6952C177.556 23.6952 175.452 26.4788 175.258 28.6291H187.603Z" fill="#D50400"/>
<path d="M219 41.8024H214.036V38.6569C213.084 40.2853 211.022 42.4774 206.572 42.4774C199.865 42.4774 195.539 37.2234 195.539 30.8629C195.539 23.7787 200.58 19.2832 206.495 19.2832C210.661 19.2832 213.008 21.5101 213.799 22.7836V19.6033V12.366H219V41.8024ZM200.739 30.8629C200.739 34.5651 203.399 37.5852 207.405 37.5852C209.307 37.5852 211.015 36.8267 212.244 35.595C213.473 34.3632 214.188 32.6513 214.112 30.7446C214.112 28.8378 213.355 27.2025 212.168 26.0473C210.974 24.8504 209.307 24.1406 207.447 24.1406C203.197 24.1406 200.739 27.4043 200.739 30.8211V30.8629Z" fill="#D50400"/>
<path d="M65.6748 46.9868H69.7365C70.9377 46.9868 71.875 47.2373 72.5138 47.7244C73.347 48.2742 73.7149 49.1788 73.7149 50.2018C73.7149 51.3431 73.1317 52.2268 72.1944 52.7488C74.2704 53.4516 74.3537 55.1983 74.3537 55.7341C74.3537 56.8545 73.8885 57.9123 73.0137 58.5177C72.0278 59.2693 71.2432 59.3876 69.4866 59.3876H65.6748V46.9868ZM68.1674 51.9485H69.556C69.9101 51.9485 70.3059 51.9137 70.6253 51.7815C71.1113 51.5309 71.3265 51.1273 71.3265 50.5428C71.3265 49.9095 70.9932 49.5198 70.6391 49.3737C70.3545 49.2415 69.9865 49.1858 69.5352 49.1858H68.1674V51.9485ZM68.1674 57.1955H69.924C70.2434 57.1955 70.6947 57.1816 71.0766 57.0076C71.5765 56.7919 71.9653 56.3674 71.9653 55.5811C71.9653 54.8573 71.5973 54.4259 71.0974 54.2101C70.6947 54.0431 70.2781 54.0431 69.8407 54.0431H68.1674V57.1955Z" fill="black"/>
<path d="M78.165 53.2916C78.165 49.318 81.2061 46.7571 84.6499 46.7571C88.3923 46.7571 91.1556 49.6729 91.1556 53.1942C91.1556 56.7154 88.4131 59.6312 84.636 59.6312C80.8381 59.6312 78.165 56.6319 78.165 53.3125V53.2916ZM80.6507 53.1872C80.6507 55.4489 82.2754 57.4252 84.6777 57.4252C87.1842 57.4252 88.6561 55.247 88.6561 53.2011C88.6561 51.1204 87.1842 48.9422 84.6638 48.9422C82.1921 48.9422 80.6507 50.9882 80.6507 53.1663V53.1872Z" fill="black"/>
<path d="M95.0654 53.2916C95.0654 49.318 98.1065 46.7571 101.55 46.7571C105.293 46.7571 108.056 49.6729 108.056 53.1942C108.056 56.7154 105.313 59.6312 101.536 59.6312C97.7385 59.6312 95.0654 56.6319 95.0654 53.3125V53.2916ZM97.558 53.1872C97.558 55.4489 99.1827 57.4252 101.585 57.4252C104.091 57.4252 105.563 55.247 105.563 53.2011C105.563 51.1204 104.091 48.9422 101.571 48.9422C99.0994 48.9422 97.558 50.9882 97.558 53.1663V53.1872Z" fill="black"/>
<path d="M112.818 46.9868H115.311V52.7349L119.407 46.9868H122.032L117.554 53.1664L122.483 59.3807H119.442L115.311 53.8205V59.3807H112.818V46.9868Z" fill="black"/>
<path d="M132.412 46.9868H134.953L137.057 55.9708L139.216 46.9868H141.119L143.292 55.9847L145.382 46.9868H147.909L144.563 59.3876H142.32L140.147 50.5915L137.987 59.3876H135.682L132.412 46.9868Z" fill="black"/>
<path d="M151.971 46.9868H155.713C157.636 46.9868 158.74 47.286 159.407 47.7731C160.428 48.5108 160.976 49.7703 160.976 51.1412C160.976 52.0459 160.726 52.8531 160.31 53.4516C159.775 54.238 159.074 54.5929 158.268 54.7947L161.025 59.3876H158.414L155.088 53.6256H155.574C156.394 53.6256 157.282 53.5769 157.796 53.1733C158.282 52.7696 158.581 52.1155 158.581 51.3639C158.581 50.6124 158.213 49.9234 157.664 49.5685C157.213 49.2832 156.609 49.1858 155.908 49.1858H154.456V59.3876H151.964V46.9868H151.971Z" fill="black"/>
<path d="M165.19 46.9868H167.683V59.3876H165.19V46.9868Z" fill="black"/>
<path d="M174.334 49.1858H171.661V46.9938H179.486V49.1858H176.827V59.3876H174.334V49.1858Z" fill="black"/>
<path d="M183.465 46.9868H185.957V59.3876H183.465V46.9868Z" fill="black"/>
<path d="M198.864 55.5881L198.816 46.9938H201.204V59.3946H198.996L193.296 50.8142L193.344 59.3946H190.956V46.9868H193.178L198.864 55.5881Z" fill="black"/>
<path d="M215.479 50.7933C215.229 50.4106 214.931 50.0557 214.563 49.7704C213.924 49.2693 213.139 48.9492 212.188 48.9492C210.196 48.9492 208.175 50.4593 208.175 53.1524C208.175 55.9499 210.216 57.4252 212.188 57.4252C213.174 57.4252 214.007 57.1399 214.646 56.6736C215.299 56.2074 215.729 55.5324 215.917 54.7947H211.299V52.7836H218.791C218.826 53.6047 218.708 54.8643 218.243 55.9012C217.09 58.483 214.431 59.6242 212.209 59.6242C208.515 59.6242 205.689 56.7571 205.689 53.1594C205.689 49.4572 208.633 46.7571 212.244 46.7571C215.035 46.7571 217.493 48.5317 218.298 50.7933H215.479Z" fill="black"/>
</g>
<defs>
<clipPath id="clip0_318_993">
<rect width="219" height="70" fill="white"/>
</clipPath>
</defs>
</svg>
